OpenSim_Sub04_CSStiffKnee_GRF.mot
version=1
nRows=58
nColumns=19
inDegrees=no
endheader
time	lFx	lFy	lFz	lCOPx	lCOPy	lCOPz	rFx	rFy	rFz	rCOPx	rCOPy	rCOPz	lMx	lMy	lMz	rMx	rMy	rMz
55.59000000	-2.38785905	1.78836244	-8.04645701	0.00000035	0	-0.00000132	-21.85258887	605.20539913	-45.92673633	0.50182340	0	-0.38782261	0	-0.00000305	0	0	-2.18469198	0
55.60000000	-2.40845792	1.78282321	-8.01002711	0.00000021	0	-0.00000066	-20.86213902	613.30618772	-47.39557249	0.49680052	0	-0.38779916	0	-0.00000228	0	0	-1.80937281	0
55.61000000	-2.39751833	1.78261763	-8.00864253	0.00000011	0	-0.00000024	-19.93870817	619.79711699	-49.72356898	0.49180459	0	-0.38760786	0	-0.00000152	0	0	-1.54218268	0
55.62000000	-2.38056708	1.77161356	-7.99034572	0.00000022	0	-0.00000028	-19.03126092	624.56111150	-52.64189253	0.48695610	0	-0.38731065	0	-0.00000265	0	0	-1.28602205	0.00000000
55.63000000	-2.38062868	1.74304728	-7.90964294	0.00000058	0	-0.00000080	-18.16603385	627.91367915	-55.58115072	0.48207185	0	-0.38699913	0	-0.00000606	0	0	-1.06933798	0
55.64000000	-2.37981142	1.73512671	-7.85350241	0.00000102	0	-0.00000149	-17.31150368	630.25592761	-58.09131881	0.47694969	0	-0.38678582	0	-0.00000976	0	0	-0.93918307	0
55.65000000	-2.38782413	1.80875546	-7.81580542	0.00000089	0	-0.00000140	-16.27920639	632.02853274	-60.05486069	0.47169527	0	-0.38675441	0	-0.00000689	0	0	-0.77697439	0
55.66000000	-2.41766960	1.87174619	-7.79455037	-0.00000116	0	0.00000148	-14.94462312	633.56167027	-61.49683462	0.46618785	0	-0.38692759	0	0.00001622	0	0	-0.52865773	0
55.67000000	-2.45084536	1.89857634	-7.79807009	-0.00000696	0	0.00000991	-13.22858317	635.21718883	-62.51162983	0.46026039	0	-0.38730802	0	0.00007600	0	0	-0.18809764	-0.00000000
55.68000000	-2.46099906	1.94703710	-7.80100356	-0.00001690	0	0.00002473	-11.05412498	637.59867515	-63.21379119	0.45410859	0	-0.38788395	0	0.00017111	0	0	0.30988906	0
55.69000000	-2.46207928	2.00771597	-7.78350479	-0.00002532	0	0.00003805	-8.34341725	641.41392990	-63.45200141	0.44782069	0	-0.38860242	0	0.00023523	0	0	0.88189125	0
55.70000000	-2.46717239	2.05498521	-7.78017891	-0.00001336	0	0.00002261	-5.28997894	647.14122582	-63.03558650	0.44156794	0	-0.38936868	0	0.00007072	0	0	1.43966730	0
55.71000000	-2.48067776	2.04122581	-7.83302918	0.00005514	0	-0.00007512	-2.22320883	654.15040255	-62.03082959	0.43553914	0	-0.39011477	0	-0.00067566	0	0	1.98564793	0.00000000
55.72000000	-2.53697183	2.00765872	-7.88938474	0.00021932	0	-0.00031551	0.62737899	660.59068537	-60.67967209	0.42977849	0	-0.39079787	0	-0.00233494	0	0	2.44623702	-0.00000000
55.73000000	-2.70961881	2.14187416	-7.92149670	0.00046180	0	-0.00068026	3.32198083	664.55431646	-59.38109181	0.42423828	0	-0.39138048	0	-0.00458023	0	0	2.79561258	0
55.74000000	-3.05155233	2.73633675	-7.92579943	0.00058095	0	-0.00088443	6.10159049	664.95610553	-58.60273078	0.41913630	0	-0.39181224	0	-0.00515649	0	0	3.11286634	0
55.75000000	-3.56830639	3.95683235	-7.87282809	0.00002595	0	-0.00012591	9.06173118	661.73450468	-58.51386575	0.41457123	0	-0.39209187	0	0.00159468	0	0	3.39375320	0
55.76000000	-4.23397349	5.75027198	-7.75558410	-0.00212352	0	0.00296853	12.01308467	655.53026184	-58.83187413	0.41043203	0	-0.39224679	0	0.02443071	0	0	3.61183056	0
55.77000000	-5.05623034	7.89543950	-7.56446625	-0.00659397	0	0.00955776	14.67612386	647.13791092	-58.96478990	0.40660226	0	-0.39229699	0	0.06868336	0	0	3.82467477	0
55.78000000	-6.12917061	10.12497333	-7.32084827	-0.01211789	0	0.01797954	17.09928341	637.09540536	-58.39161112	0.40277826	0	-0.39229875	0	0.11745463	0	0	4.06653127	0
55.79000000	-7.68291920	12.43640094	-7.06307057	-0.01206343	0	0.01875507	19.41027400	626.06884986	-56.96546171	0.39893668	0	-0.39228724	0	0.09883845	0	0	4.28034736	0
55.80000000	-10.25453597	15.49813438	-6.72311592	0.00904924	0	-0.01080710	21.61687171	614.60992656	-54.98181274	0.39519935	0	-0.39229995	0	-0.14304075	0	0	4.44601188	0.00000000
55.81000000	-14.57895375	20.91595033	-6.09994950	0.07342347	0	-0.10417444	23.67011335	602.84299130	-52.93348543	0.39186931	0	-0.39234660	0	-0.81232566	0	0	4.51229679	0
55.82000000	-21.27180156	31.57749251	-4.95074386	0.19027868	0	-0.27767610	25.63644206	590.44936074	-51.10782871	0.38866803	0	-0.39240145	0	-1.94239924	0	0	4.47477477	0
55.83000000	-30.24767372	51.67925277	-3.02177585	0.31761281	0	-0.47120329	27.80003175	577.09916753	-49.58705758	0.38541428	0	-0.39247359	0	-3.03618699	0	0	4.43044841	0
55.84000000	-39.32264340	85.03435104	-0.27554455	0.40648135	0	-0.59989615	30.35816161	562.40255648	-48.05312484	0.38221595	0	-0.39259337	0	-3.59437465	0	0	4.36493174	0
55.85000000	-43.72593190	131.44227515	2.63020180	0.45205209	0	-0.65164056	33.39730418	545.74140983	-45.80457417	0.37943055	0	-0.39276607	0	-3.19920745	0	0	4.23805730	0
55.86000000	-40.55188466	185.87372355	4.89438560	0.46696626	0	-0.65800678	36.82940144	525.92870629	-42.16463876	0.37693517	0	-0.39309997	0	-1.59625009	0	0	4.23199285	0
55.87000000	-33.50702380	244.55267163	7.98026524	0.46366909	0	-0.64868807	40.48245592	501.33898670	-36.61481696	0.37426112	0	-0.39373644	0	0.11063609	0	0	4.37500060	0
55.88000000	-26.83070714	305.70693404	12.18111783	0.45388957	0	-0.63910202	43.96775425	470.75629171	-29.25056867	0.37126636	0	-0.39471099	0	1.46979482	0	0	4.47056140	0.00000000
55.89000000	-21.24896816	366.80621360	16.90907002	0.44466689	0	-0.63368287	46.82211371	433.90343422	-21.09150072	0.36803590	0	-0.39618806	0	2.70819286	0	0	4.43889622	0
55.90000000	-16.76006700	425.32058146	22.05645235	0.43833622	0	-0.63178336	48.51560968	390.97345780	-13.23095275	0.36496080	0	-0.39857729	0	3.63563059	0	0	4.21601330	-0.00000000
55.91000000	-13.44767752	479.07976541	27.16954118	0.43409627	0	-0.63176314	48.17908178	342.42628534	-6.42303980	0.36239378	0	-0.40267776	0	4.31851394	0	0	3.72574247	0.00000000
55.92000000	-10.56858367	526.32130810	32.28579096	0.43065929	0	-0.63241981	45.10324265	288.98956062	-1.35358230	0.36114689	0	-0.40943284	0	4.75694852	0	0	3.07557867	0
55.93000000	-7.05879714	566.04543272	37.65649226	0.42712329	0	-0.63320250	38.88385082	232.16219414	1.74671789	0.36079411	0	-0.41810237	0	4.92344752	0	0	2.34463012	0
55.94000000	-2.78640612	598.49513386	43.19028641	0.42320858	0	-0.63399951	29.49177091	175.13642077	3.04993562	0.35725793	0	-0.42290875	0	4.84054051	0	0	1.61176180	0.00000000
55.95000000	1.69052525	624.78880991	48.64488347	0.41891013	0	-0.63479621	17.77195309	122.11313108	2.95827654	0.33958006	0	-0.40902568	0	4.52433409	0	0	0.95627911	0
55.96000000	5.79345880	646.17095931	53.66309557	0.41423781	0	-0.63549674	5.78220547	76.95112693	2.16610914	0.29047351	0	-0.35318848	0	4.08625010	0	0	0.33717228	0
55.97000000	9.36567375	663.42535044	57.91862153	0.40931722	0	-0.63606672	-3.22833229	42.04875047	1.16125515	0.19883005	0	-0.24077685	0	3.66017976	0	0	-0.19658948	0
55.98000000	12.59665180	676.59051923	61.12349445	0.40424398	0	-0.63653544	-6.56072030	18.11502548	0.23500617	0.09165512	0	-0.10963425	0	3.36934756	0	0	-0.32637328	0.00000000
55.99000000	15.61191037	684.94156791	63.04624161	0.39925171	0	-0.63689056	-4.85114076	4.34735644	-0.28282044	0.02152194	0	-0.02496311	0	3.26845276	0	0	-0.21164571	-0.00000000
56	18.35360615	687.44184208	63.58296333	0.39434775	0	-0.63708268	-2.25529841	-0.98826924	-0.31284237	-0.00680993	0	0.00877547	0	3.36538246	0	0	-0.08466033	-0.00000000
56.01000000	20.83066211	683.63935227	62.87190877	0.38950453	0	-0.63710412	-0.64035447	-1.57254485	-0.27416592	-0.01116928	0	0.01366236	0	3.56726144	0	0	-0.01247893	0
56.02000000	23.04134670	674.52252423	61.26360069	0.38457920	0	-0.63696551	-0.04201951	-0.60723928	-0.23114827	-0.00721419	0	0.00870698	0	3.76538535	0	0	0.01226014	-0.00000000
56.03000000	24.89521993	662.56664245	59.25231820	0.37968182	0	-0.63668337	0.00790586	0.32335015	-0.17853802	-0.00287402	0	0.00342075	0	3.92861299	0	0	0.01318105	0.00000000
56.04000000	26.21285060	650.46631598	57.34170928	0.37501625	0	-0.63628895	-0.10792029	0.79140697	-0.20853038	-0.00041591	0	0.00046327	0	4.02780674	0	0	0.00739972	0.00000000
56.05000000	26.97486482	639.95896043	55.81021551	0.37056118	0	-0.63581466	-0.21361748	0.90759535	-0.24088178	0.00042241	0	-0.00052840	0	4.02378601	0	0	0.00249312	-0.00000000
56.06000000	27.37312109	631.62599330	54.65709301	0.36600936	0	-0.63531372	-0.28143976	0.84506616	-0.22642449	0.00045040	0	-0.00054840	0	3.95443869	0	0	0.00005972	-0.00000000
56.07000000	27.65643519	625.28727493	53.79280690	0.36120291	0	-0.63481971	-0.30766015	0.71010694	-0.24826577	0.00025189	0	-0.00030301	0	3.87710506	0	0	-0.00060924	0.00000000
56.08000000	27.83479242	620.65470895	53.10393126	0.35641048	0	-0.63436423	-0.33400451	0.62532063	-0.26150751	0.00008445	0	-0.00009984	0	3.82917452	0	0	-0.00050702	-0.00000000
56.09000000	27.78849345	617.48895575	52.45803497	0.35168120	0	-0.63396399	-0.34291575	0.59059586	-0.24007178	0.00000196	0	-0.00000079	0	3.81528841	0	0	-0.00024804	-0.00000000
56.10000000	27.61851027	615.49804661	51.74487056	0.34688051	0	-0.63361076	-0.35291429	0.56222035	-0.25309829	-0.00002004	0	0.00002529	0	3.84531287	0	0	-0.00006620	-0.00000000
56.11000000	27.52577026	614.47519415	50.99647032	0.34182393	0	-0.63329633	-0.37724540	0.53323547	-0.23821457	-0.00001564	0	0.00001999	0	3.88250325	0	0	0.00001145	-0.00000000
56.12000000	27.71580669	614.40366474	50.24489158	0.33664786	0	-0.63305213	-0.36772464	0.49040622	-0.18963885	-0.00000667	0	0.00000907	0	3.95026462	0	0	0.00002426	0.00000000
56.13000000	28.22857764	615.33170100	49.55955123	0.33137238	0	-0.63288773	-0.35238742	0.47537339	-0.20524731	-0.00000314	0	0.00000326	0	4.06818681	0	0	0.00001127	-0.00000000
56.14000000	29.10839028	617.16517976	49.00573729	0.32588965	0	-0.63278396	-0.35071016	0.49181461	-0.23431301	-0.00000906	0	0.00000537	0	4.21714719	0	0	-0.00000426	0.00000000
56.15000000	30.36865473	619.58050319	48.59938019	0.32008452	0	-0.63271064	-0.34311729	0.51200778	-0.28428160	-0.00002468	0	0.00001459	0	4.39193509	0	0	-0.00000763	-0.00000000
56.16000000	31.85666010	622.18351618	48.41073986	0.31408671	0	-0.63266436	-0.32220727	0.51961207	-0.33955220	-0.00004177	0	0.00002489	0	4.53980283	0	0	0.00001756	-0.00000000
